<?xml version="1.0" standalone="no"?><svg xmlns="http://www.w3.org/2000/svg" viewBox="0 0 1440 320"><path fill="#e2edff" fill-opacity="1" d="M0,64L30,106.7C60,149,120,235,180,245.3C240,256,300,192,360,144C420,96,480,64,540,58.7C600,53,660,75,720,101.3C780,128,840,160,900,165.3C960,171,1020,149,1080,165.3C1140,181,1200,235,1260,261.3C1320,288,1380,288,1410,288L1440,288L1440,320L1410,320C1380,320,1320,320,1260,320C1200,320,1140,320,1080,320C1020,320,960,320,900,320C840,320,780,320,720,320C660,320,600,320,540,320C480,320,420,320,360,320C300,320,240,320,180,320C120,320,60,320,30,320L0,320Z"></path></svg>