<?xml version="1.0" standalone="no"?><svg xmlns="http://www.w3.org/2000/svg" viewBox="0 0 1440 320"><path fill="#e2edff" fill-opacity="1" d="M0,64L30,106.7C60,149,120,235,180,245.3C240,256,300,192,360,144C420,96,480,64,540,58.7C600,53,660,75,720,101.3C780,128,840,160,900,165.3C960,171,1020,149,1080,165.3C1140,181,1200,235,1260,261.3C1320,288,1380,288,1410,288L1440,288L1440,0L1410,0C1380,0,1320,0,1260,0C1200,0,1140,0,1080,0C1020,0,960,0,900,0C840,0,780,0,720,0C660,0,600,0,540,0C480,0,420,0,360,0C300,0,240,0,180,0C120,0,60,0,30,0L0,0Z"></path></svg>